<?xml version="1.0" standalone="no"?>
<!DOCTYPE svg PUBLIC "-//W3C//DTD SVG 20010904//EN"
 "http://www.w3.org/TR/2001/REC-SVG-20010904/DTD/svg10.dtd">
<svg version="1.0" xmlns="http://www.w3.org/2000/svg"
 width="750.000000pt" height="750.000000pt" viewBox="0 0 750.000000 750.000000"
 preserveAspectRatio="xMidYMid meet">

<g transform="translate(0.000000,750.000000) scale(0.100000,-0.100000)"
fill="#000000" stroke="none">
<path d="M4015 7369 c-100 -24 -142 -30 -168 -25 -78 14 -168 17 -227 6 -76
-13 -218 -58 -226 -71 -3 -5 -12 -9 -20 -9 -19 0 -142 -59 -150 -71 -3 -5 -9
-7 -14 -4 -4 3 -13 -2 -20 -10 -7 -8 -18 -15 -26 -15 -7 0 -17 -7 -22 -16 -4
-8 -27 -22 -50 -29 -23 -8 -51 -24 -62 -35 -11 -11 -34 -23 -50 -26 -16 -4
-31 -12 -34 -20 -3 -8 -15 -14 -26 -14 -11 0 -20 -7 -20 -16 0 -8 -4 -13 -9
-10 -5 3 -21 -6 -36 -20 -50 -46 -114 -55 -285 -40 -69 6 -207 41 -227 57 -21
18 -53 -8 -53 -44 1 -43 35 -117 55 -117 8 0 15 -7 15 -15 0 -9 9 -15 25 -15
39 0 30 -16 -20 -35 -104 -39 -257 -147 -383 -270 -100 -97 -132 -139 -151
-197 -7 -21 -17 -38 -22 -38 -5 0 -9 -7 -9 -15 0 -8 -9 -41 -20 -72 -11 -32
-21 -71 -22 -88 -1 -16 -6 -36 -11 -43 -6 -7 -11 -54 -13 -105 -4 -126 -9
-148 -60 -251 -24 -49 -44 -95 -44 -102 0 -8 -9 -30 -21 -51 -19 -33 -26 -60
-33 -125 -1 -10 -5 -20 -8 -23 -2 -3 -1 -26 3 -53 5 -36 4 -50 -7 -58 -8 -6
-14 -15 -14 -20 0 -5 -23 -25 -51 -44 -29 -19 -46 -36 -40 -38 6 -2 9 -8 6
-12 -6 -10 32 -7 57 4 9 4 33 3 55 -3 21 -6 50 -11 66 -11 19 0 27 -5 28 -17
6 -135 20 -202 50 -244 10 -15 19 -32 19 -38 0 -6 5 -11 10 -11 6 0 10 -6 10
-14 0 -7 9 -25 20 -39 20 -25 27 -81 12 -91 -9 -5 -8 -58 0 -86 34 -107 44
-122 100 -151 44 -23 58 -24 82 -6 15 11 17 17 7 35 -10 18 -9 23 4 28 13 5
15 15 9 52 -5 32 -4 43 5 38 6 -4 11 -14 11 -23 0 -9 11 -31 26 -50 14 -18 23
-37 20 -42 -3 -5 1 -14 10 -21 10 -10 13 -22 8 -44 -10 -44 -13 -306 -4 -306
4 0 8 -10 8 -22 0 -54 12 -123 26 -153 9 -18 17 -41 19 -51 8 -38 20 -61 57
-102 28 -31 61 -111 65 -157 5 -44 47 -138 69 -153 6 -4 17 -19 25 -34 15 -28
72 -61 126 -72 22 -5 36 -2 50 12 19 18 20 17 58 -57 39 -74 74 -131 88 -141
4 -3 13 -17 19 -30 16 -37 37 -72 47 -79 4 -3 19 -27 33 -53 13 -27 28 -48 31
-48 11 0 41 -83 32 -90 -4 -3 -39 -16 -78 -29 -69 -22 -103 -35 -137 -52 -28
-14 -44 -11 -69 16 -13 14 -41 30 -62 35 -21 6 -35 15 -32 19 8 14 -56 19
-125 10 -405 -55 -416 -56 -488 -48 -95 10 -193 41 -227 69 -53 46 -159 51
-218 10 -36 -25 -91 -106 -131 -195 -45 -98 -64 -168 -71 -260 -11 -145 -15
-159 -52 -215 -41 -60 -92 -159 -93 -176 0 -6 -7 -17 -15 -24 -8 -7 -15 -22
-15 -35 0 -12 -3 -25 -7 -29 -4 -4 -9 -42 -10 -85 -3 -107 -12 -127 -65 -139
-49 -12 -99 -27 -243 -72 -55 -18 -118 -37 -140 -42 -22 -6 -48 -18 -58 -26
-15 -14 -16 -18 -3 -30 11 -12 24 -12 68 -4 51 10 132 35 173 53 11 4 47 15
80 23 33 8 91 23 130 35 73 22 111 26 117 14 5 -11 67 -43 84 -43 8 0 25 -6
37 -14 14 -9 49 -14 95 -14 50 0 81 -5 97 -16 32 -21 37 -20 30 7 -5 19 -4 20
7 7 17 -21 107 -57 135 -55 12 0 28 7 37 14 13 11 20 10 42 -4 29 -19 115 -16
122 4 5 15 32 14 32 0 0 -8 13 -10 37 -6 33 6 39 3 75 -38 24 -27 44 -42 53
-39 9 4 39 -19 77 -59 35 -35 73 -67 84 -71 12 -4 34 -26 50 -49 34 -50 74
-90 129 -126 22 -14 47 -34 57 -43 10 -10 24 -18 32 -18 8 0 17 -7 20 -16 4
-9 9 -14 13 -11 3 4 23 -7 43 -23 21 -17 41 -30 45 -30 4 0 42 -16 84 -36 160
-76 178 -84 192 -84 8 0 23 -6 34 -14 11 -7 34 -17 52 -20 17 -4 37 -14 44
-22 6 -8 20 -14 30 -14 9 0 24 -7 33 -15 8 -9 17 -15 18 -14 4 3 49 -10 73
-21 56 -25 99 -40 116 -40 20 0 54 -54 44 -70 -3 -5 0 -24 8 -42 24 -53 37
-99 37 -129 0 -15 5 -31 10 -34 6 -4 10 -12 9 -18 -1 -7 1 -28 5 -47 4 -19 9
-48 11 -65 2 -16 5 -30 6 -30 2 0 7 -30 12 -71 2 -17 6 -35 9 -40 7 -11 19
-131 20 -201 2 -60 13 -66 56 -32 24 19 27 19 39 3 8 -11 21 -15 38 -12 14 3
25 1 25 -3 0 -5 7 -9 15 -9 12 0 14 9 10 38 -2 20 -9 98 -15 172 -16 192 -26
267 -57 410 -27 127 -27 130 -9 130 9 0 16 -4 16 -10 0 -5 5 -10 11 -10 6 0
22 -9 36 -20 14 -11 30 -17 35 -14 5 3 15 1 22 -5 22 -18 250 -12 281 7 6 4
22 7 37 8 15 1 35 5 45 10 10 4 25 8 34 9 15 2 82 22 154 47 17 6 42 13 58 15
15 3 27 9 27 14 0 5 8 9 18 9 22 1 54 25 45 34 -4 4 1 4 12 0 14 -6 17 -4 13
7 -4 10 5 20 26 28 17 8 40 22 51 31 44 38 49 36 41 -11 -4 -24 -10 -66 -12
-94 -2 -27 -9 -75 -15 -105 -6 -30 -12 -64 -13 -75 -2 -11 -6 -27 -10 -36 -4
-9 -6 -20 -4 -25 1 -5 -3 -25 -9 -44 -7 -19 -14 -64 -16 -100 -5 -69 -25 -195
-34 -220 -4 -8 -5 -18 -5 -23 3 -13 -20 -97 -27 -97 -3 0 -7 -18 -8 -40 -2
-55 28 -56 49 -1 13 32 21 39 51 45 36 7 62 27 50 39 -3 4 -19 7 -35 7 -31 0
-45 20 -33 47 8 17 8 17 12 1 4 -15 56 -38 86 -38 17 0 5 18 -15 24 -27 7 -15
20 25 30 28 7 29 6 22 -26 -12 -59 -14 -63 -62 -88 -66 -35 -67 -53 -2 -68 29
-7 53 -11 54 -10 4 7 98 405 115 493 23 114 50 266 54 310 7 66 28 182 38 208
6 15 18 27 27 27 10 0 26 6 36 14 10 7 27 11 37 8 10 -2 24 0 31 5 6 6 39 18
72 28 33 9 67 20 75 23 8 3 20 7 25 7 6 1 23 7 38 13 15 7 40 15 55 19 15 3
36 12 47 18 23 15 183 74 217 81 13 2 41 6 63 9 49 7 183 57 251 95 80 45 174
112 281 203 53 44 97 60 117 40 3 -4 16 -8 28 -10 12 -2 30 -11 39 -19 10 -9
22 -13 28 -10 5 3 15 1 23 -6 7 -7 29 -22 48 -33 19 -10 53 -29 75 -42 22 -12
49 -27 60 -32 11 -5 55 -42 98 -82 42 -41 95 -89 117 -107 24 -20 37 -39 33
-48 -3 -8 0 -14 5 -14 15 0 168 -150 175 -171 3 -9 18 -20 33 -23 29 -8 71
-48 114 -111 14 -20 30 -42 35 -48 28 -32 98 -154 150 -262 54 -111 99 -185
118 -193 4 -2 7 -8 7 -14 0 -6 12 -22 26 -35 64 -59 53 40 -20 192 -71 147
-221 365 -349 509 -215 240 -402 398 -614 517 -45 26 -246 141 -250 144 -2 1
-5 32 -8 69 -19 277 -53 403 -155 575 -40 67 -144 193 -190 231 -23 19 -50 42
-58 50 -8 8 -24 19 -36 26 -12 6 -37 20 -57 31 -19 11 -50 24 -69 28 -18 4
-55 20 -82 36 -27 16 -51 29 -54 29 -6 0 -81 34 -191 87 -64 30 -93 50 -93 61
0 10 -11 34 -25 54 -14 20 -25 39 -25 42 0 3 -24 32 -54 63 -92 98 -100 111
-87 136 6 12 29 55 50 95 55 102 81 170 85 222 2 25 18 95 35 155 52 186 70
278 75 390 2 44 14 127 25 185 25 122 22 189 -13 303 -13 43 -20 81 -16 93 11
28 20 153 21 276 1 74 5 113 15 125 7 10 14 31 14 46 0 37 22 78 82 151 26 34
52 66 56 71 18 23 90 174 106 225 11 30 22 64 27 75 14 36 30 149 28 195 -1
25 1 63 4 85 17 97 18 240 3 305 -27 117 -34 142 -45 153 -6 6 -11 19 -11 29
0 10 -4 18 -10 18 -5 0 -10 8 -11 18 0 9 -9 31 -20 47 -10 17 -22 37 -26 45
-8 17 -55 83 -65 90 -3 3 -16 32 -28 65 -12 33 -29 66 -38 73 -9 6 -13 12 -9
12 4 0 -12 17 -36 38 -23 22 -67 47 -97 58 -84 28 -105 47 -143 129 -49 105
-256 204 -424 205 l-63 0 -15 37 c-22 52 -81 103 -150 129 -32 11 -166 13
-210 3z m201 -80 c22 -9 53 -28 68 -42 23 -22 26 -29 16 -47 -6 -11 -9 -24 -6
-29 3 -4 -42 -8 -99 -8 -98 1 -127 -4 -112 -19 3 -4 39 -6 79 -5 85 1 171 -19
202 -48 12 -12 26 -21 30 -21 4 0 21 -14 38 -30 17 -17 33 -29 36 -26 7 8 -27
57 -66 93 l-35 32 29 7 c43 11 172 -14 239 -46 90 -43 139 -91 189 -183 25
-45 48 -94 51 -109 7 -28 29 -28 51 0 9 12 17 10 55 -13 55 -35 115 -103 111
-126 -2 -10 11 -37 27 -60 17 -23 31 -47 31 -54 0 -7 9 -20 20 -30 11 -10 20
-24 20 -30 0 -7 6 -15 14 -18 30 -12 119 -228 132 -322 1 -11 3 -22 4 -25 5
-16 -3 -132 -11 -166 -6 -21 -15 -68 -20 -104 -6 -36 -14 -69 -19 -74 -6 -6
-5 -15 1 -23 9 -9 8 -13 0 -13 -9 0 -8 -6 2 -19 10 -16 11 -32 2 -83 -13 -79
-55 -208 -66 -208 -5 0 -9 -5 -9 -10 0 -6 -16 -33 -35 -61 -19 -28 -35 -55
-35 -60 0 -11 -45 -64 -87 -103 -18 -16 -33 -38 -33 -47 0 -26 -37 -85 -66
-103 l-24 -16 -1 45 c-2 65 -3 68 -16 73 -9 2 -13 -9 -13 -39 0 -23 0 -178 0
-343 -1 -166 1 -341 4 -391 8 -145 8 -626 1 -670 -12 -67 -43 -183 -55 -204
-5 -11 -10 -28 -10 -39 0 -34 -105 -228 -170 -314 -66 -87 -222 -247 -325
-333 -65 -54 -82 -70 -135 -120 -62 -58 -220 -132 -320 -150 -38 -6 -332 43
-361 61 -5 3 -21 8 -36 10 -106 19 -372 170 -490 278 -19 16 -43 37 -55 46
-109 82 -239 253 -311 412 -32 69 -97 238 -97 251 0 7 -4 17 -9 22 -7 9 -32
108 -45 185 -2 14 -10 54 -16 90 -7 36 -13 75 -14 88 -1 12 -8 27 -16 32 -9 6
-10 10 -3 10 15 0 9 102 -21 315 -8 61 -16 135 -18 165 -1 30 -6 60 -10 66 -5
7 -8 16 -6 20 2 9 -10 145 -18 199 -10 71 -17 135 -13 135 2 0 29 -7 59 -15
75 -20 158 -7 250 40 14 7 38 11 55 10 45 -6 50 5 16 36 -28 25 -30 32 -20 50
6 13 7 19 1 15 -6 -3 -13 -2 -16 3 -8 12 18 21 43 14 11 -3 28 -3 36 1 8 3 18
5 21 5 4 0 10 3 13 8 7 9 71 33 89 33 23 0 12 -18 -18 -30 -42 -17 -49 -33
-13 -27 32 5 69 24 120 61 18 13 54 27 80 30 74 10 147 28 161 39 35 28 -13
77 -76 77 -41 0 -44 7 -22 51 23 44 35 105 22 113 -5 3 -17 -20 -27 -52 -19
-62 -42 -102 -57 -102 -6 0 -7 8 -3 18 4 9 8 22 9 27 1 6 4 15 8 20 3 6 9 29
13 52 7 43 27 69 44 59 5 -3 35 11 66 31 68 44 57 54 -23 22 -45 -19 -76 -24
-143 -24 -72 0 -85 -2 -82 -15 3 -12 -9 -16 -61 -18 -71 -4 -141 13 -159 37
-13 17 -57 45 -57 36 0 -14 45 -65 57 -65 7 0 13 -4 13 -9 0 -28 187 -38 214
-11 13 13 113 13 121 1 3 -5 1 -12 -5 -16 -5 -3 -10 -21 -10 -40 0 -19 -4 -37
-10 -40 -5 -3 -10 -14 -10 -24 0 -27 -30 -48 -80 -56 -86 -13 -162 -36 -183
-55 -11 -11 -24 -17 -28 -14 -5 3 -18 -4 -30 -15 -26 -24 -41 -19 -55 17 -27
65 -35 120 -33 208 2 51 0 97 -4 100 -4 4 -8 3 -8 -2 -1 -5 -3 -20 -6 -34 -5
-30 -5 -165 0 -200 5 -31 14 -56 34 -98 9 -17 14 -33 12 -35 -2 -1 -11 -8 -20
-15 -14 -11 -20 -7 -37 23 -23 38 -42 101 -47 153 -2 18 -6 37 -10 40 -5 4 -5
-6 -1 -21 5 -20 3 -27 -5 -22 -7 5 -9 1 -5 -11 3 -11 7 -34 8 -51 1 -18 7 -33
12 -33 5 0 7 -3 3 -6 -7 -8 13 -66 30 -82 7 -8 10 -18 7 -24 -3 -5 -12 0 -21
11 -8 12 -19 21 -24 21 -17 0 9 -38 62 -91 40 -40 45 -49 27 -46 -111 20 -170
65 -218 165 -31 65 -50 88 -50 62 0 -28 45 -122 76 -159 30 -34 82 -73 104
-76 3 0 14 -6 25 -12 l20 -12 -20 -8 c-11 -4 -60 -8 -110 -8 -81 0 -95 3 -138
28 -26 16 -63 45 -82 65 -18 20 -36 34 -39 31 -9 -9 18 -59 32 -59 6 0 12 -4
12 -10 0 -5 15 -20 34 -32 28 -18 34 -28 31 -50 -2 -15 -6 -32 -9 -37 -4 -5
-3 -12 2 -15 4 -2 9 -23 10 -45 2 -32 -1 -41 -13 -41 -14 0 -15 -8 -10 -52 4
-29 8 -66 9 -81 3 -27 16 -51 16 -29 0 16 26 15 28 0 0 -7 3 -42 7 -78 3 -36
7 -88 8 -115 2 -28 6 -56 11 -63 4 -6 3 -12 -3 -12 -9 0 -14 16 -26 80 -3 14
-8 39 -12 55 -4 17 -6 36 -4 43 1 8 -7 16 -17 19 -23 6 -31 43 -38 176 -3 57
-1 87 6 87 5 0 10 -6 10 -12 0 -9 3 -8 9 2 13 19 5 29 -19 23 -14 -4 -20 0
-20 10 0 8 -3 23 -6 31 -5 12 -2 15 11 10 16 -6 16 -5 -1 14 -22 26 -25 27
-18 7 4 -8 2 -15 -4 -15 -14 0 -8 -143 6 -148 7 -2 10 -8 6 -13 -3 -5 -2 -14
2 -21 4 -6 9 -39 10 -72 5 -84 10 -121 18 -134 5 -9 -9 -11 -56 -6 -72 7 -110
31 -169 108 -42 55 -72 139 -56 155 8 8 3 11 -17 11 -15 0 -47 5 -72 11 -49
13 -105 67 -131 128 -21 50 -40 161 -33 196 l7 30 8 -28 c17 -62 110 -184 180
-237 21 -15 2 9 -61 80 -98 110 -154 274 -154 453 0 95 25 230 52 280 5 10 7
21 5 24 -10 10 -35 -54 -56 -141 -24 -102 -27 -230 -7 -323 7 -35 10 -63 5
-63 -5 0 -9 6 -9 13 0 24 -72 51 -89 34 -19 -19 -25 2 -9 36 11 24 14 57 12
127 -4 119 6 160 71 285 29 55 51 110 50 123 -1 12 3 22 9 22 7 0 11 41 11
123 0 114 2 128 34 212 56 148 105 228 198 315 92 88 213 173 352 247 29 16
55 17 45 2 -4 -8 0 -7 15 1 12 6 19 15 16 19 -4 8 18 23 38 25 4 1 11 6 15 11
4 6 25 10 47 9 59 -1 78 13 30 21 -88 15 -193 61 -225 100 -19 23 -7 27 34 10
42 -18 71 -21 252 -31 l131 -7 64 30 c242 116 289 141 325 174 11 10 24 19 28
19 4 0 25 14 46 31 26 21 45 29 56 25 10 -4 20 -3 23 2 10 16 84 58 131 74
106 38 318 60 371 38 24 -10 39 -10 82 4 147 46 231 50 313 15z m749 -2310 c4
-11 4 -36 0 -55 -5 -30 -4 -35 12 -32 15 2 19 -5 21 -46 2 -27 -2 -62 -9 -78
-6 -16 -12 -45 -13 -65 -1 -37 -20 -58 -24 -26 -9 95 -12 323 -4 323 6 0 14
-9 17 -21z m-3043 -251 c-17 -17 -15 -105 3 -164 8 -27 11 -52 7 -56 -13 -13
-69 54 -80 94 -7 24 -7 52 0 82 8 40 14 47 41 54 37 10 46 7 29 -10z m3031
-148 c-4 -14 0 -20 12 -20 14 0 15 -3 5 -15 -7 -8 -16 -15 -20 -15 -12 0 -21
31 -15 51 8 26 24 24 18 -1z m79 -95 c12 -41 16 -135 7 -161 -4 -12 -10 -48
-14 -80 -3 -32 -11 -64 -16 -71 -6 -7 -8 -17 -4 -23 3 -5 1 -10 -4 -10 -7 0
-9 30 -5 88 10 141 10 153 2 159 -5 2 -6 8 -3 13 3 5 1 11 -5 15 -5 3 -10 17
-10 31 0 26 -9 31 -27 13 -9 -9 -11 -7 -6 9 3 11 11 18 18 16 7 -3 15 4 18 16
8 31 39 22 49 -15z m-2738 -44 c12 -13 54 -98 61 -123 2 -5 4 -9 5 -10 1 -2 4
-29 5 -62 2 -32 6 -61 9 -64 3 -3 -1 -14 -11 -24 -15 -17 -15 -18 8 -19 13 0
18 -3 11 -6 -8 -3 -10 -9 -3 -16 10 -14 30 -110 34 -174 1 -13 5 -23 10 -23 4
0 5 -15 3 -32 -5 -45 20 -174 44 -226 11 -23 23 -70 27 -103 5 -51 3 -62 -13
-74 -29 -22 -69 -18 -103 10 -30 26 -41 50 -81 185 -12 41 -27 81 -33 88 -5 7
-6 16 -2 20 4 4 10 1 12 -5 7 -19 33 -15 33 5 0 9 -11 38 -25 65 -25 46 -22
67 3 27 7 -11 17 -20 23 -20 5 0 7 5 4 10 -10 16 8 11 33 -9 12 -11 22 -24 22
-30 0 -6 7 -11 16 -11 9 0 14 6 12 13 -3 6 -20 60 -39 120 -18 59 -37 107 -41
107 -4 0 -8 -4 -8 -10 0 -5 -16 -10 -36 -10 l-37 0 6 -42 c2 -24 8 -51 12 -60
5 -14 2 -18 -13 -18 -22 0 -33 34 -48 147 -3 29 -9 51 -13 49 -8 -5 -6 -66 3
-101 4 -14 3 -25 -2 -25 -10 0 -30 61 -35 102 -2 15 -6 30 -10 34 -11 12 -8
210 4 241 10 26 12 26 19 8 4 -11 5 -49 3 -85 -4 -52 -3 -63 7 -53 7 6 13 31
14 54 1 23 6 44 11 46 6 2 35 -21 65 -52 46 -45 80 -68 80 -51 0 19 -25 66
-35 66 -7 0 -40 22 -72 50 -32 27 -64 50 -70 50 -16 0 -17 32 -1 48 18 18 114
13 132 -7z m2666 -26 c0 -14 -4 -25 -10 -25 -5 0 -10 11 -10 25 0 14 5 25 10
25 6 0 10 -11 10 -25z m0 -55 c0 -5 -4 -10 -10 -10 -5 0 -10 5 -10 10 0 6 5
10 10 10 6 0 10 -4 10 -10z m-3 -52 c-3 -7 -5 -2 -5 12 0 14 2 19 5 13 2 -7 2
-19 0 -25z m33 -188 c0 -5 -4 -10 -9 -10 -6 0 -13 5 -16 10 -3 6 1 10 9 10 9
0 16 -4 16 -10z m-5 -47 c4 -16 8 -36 10 -47 7 -33 -17 -201 -30 -215 -11 -11
-13 -6 -11 30 1 24 3 92 4 152 2 103 15 140 27 80z m-2715 -264 c0 -18 -18 -9
-23 12 -4 16 -3 18 9 8 8 -6 14 -15 14 -20z m2517 -727 c53 -50 204 -259 195
-270 -2 -1 10 -28 25 -60 14 -31 27 -59 28 -62 4 -16 17 -58 25 -75 16 -38 42
-120 46 -150 3 -16 9 -43 14 -60 5 -16 14 -49 20 -72 11 -46 30 -58 30 -20 0
60 -74 319 -120 422 -15 33 -27 65 -28 70 -1 13 23 8 68 -13 19 -9 37 -17 40
-18 3 0 16 -5 30 -11 14 -6 59 -24 100 -41 41 -17 100 -43 130 -59 30 -16 71
-35 90 -43 43 -17 116 -69 151 -107 47 -52 129 -161 129 -172 0 -6 4 -11 9
-11 11 0 36 -59 28 -66 -3 -3 6 -22 19 -41 13 -20 24 -41 24 -48 0 -6 9 -40
20 -74 28 -83 34 -142 33 -288 l-1 -122 -40 -53 c-50 -67 -144 -148 -172 -148
-6 0 -9 -4 -6 -8 3 -5 -12 -18 -32 -29 -110 -62 -213 -112 -243 -118 -19 -4
-38 -11 -44 -15 -5 -4 -31 -10 -58 -13 -26 -4 -120 -31 -210 -61 -89 -30 -180
-60 -202 -66 -124 -35 -159 -44 -247 -66 -53 -13 -150 -31 -215 -39 -65 -9
-154 -22 -198 -30 -69 -11 -84 -10 -110 3 -16 8 -31 16 -33 17 -11 9 87 146
166 232 99 107 277 443 343 644 30 92 32 101 32 132 0 15 4 27 8 27 5 0 7 14
5 30 -2 17 0 30 3 30 4 0 7 15 8 33 0 17 8 70 16 117 21 113 26 173 32 375 3
94 7 187 10 208 3 23 1 37 -5 37 -7 0 -8 5 -3 13 10 16 12 91 2 97 -12 8 -17
64 -8 76 15 19 55 4 96 -34z m-132 -214 c-3 -90 -5 -185 -6 -213 -1 -27 -4
-54 -7 -60 -4 -5 -8 -23 -9 -40 -7 -100 -14 -163 -22 -195 -5 -19 -9 -42 -9
-50 0 -23 -9 -73 -16 -90 -3 -8 -10 -42 -15 -75 -15 -94 -22 -127 -37 -170 -7
-22 -14 -47 -14 -56 0 -18 -33 -107 -56 -152 -8 -16 -14 -35 -14 -42 0 -24
-22 -65 -32 -59 -5 3 -8 0 -7 -7 3 -16 -37 -106 -51 -114 -5 -3 -21 -28 -34
-55 -14 -28 -42 -67 -63 -88 -42 -41 -92 -103 -110 -137 -7 -13 -19 -25 -28
-29 -8 -3 -15 -12 -15 -21 0 -8 -4 -15 -10 -15 -5 0 -10 -6 -10 -14 0 -17 -39
-86 -48 -86 -20 0 -142 102 -154 128 -2 4 -55 53 -119 109 -262 230 -655 706
-774 939 -9 17 -24 40 -33 50 -9 11 -23 31 -31 46 -12 23 -12 29 1 42 32 31
51 151 45 270 l-6 111 32 -40 c18 -21 42 -50 55 -64 12 -13 22 -28 22 -32 0
-5 4 -9 8 -9 5 0 46 -36 92 -80 46 -44 89 -80 96 -80 7 0 17 -6 21 -14 10 -17
182 -126 200 -126 7 0 13 -4 13 -10 0 -5 3 -9 8 -8 4 0 14 -1 22 -4 67 -26 54
-22 153 -43 85 -18 118 -12 217 38 262 135 448 284 631 505 14 17 89 140 89
146 0 11 20 56 25 56 3 0 3 -73 0 -162z m-3080 5 c27 -18 57 -33 65 -33 9 0
20 -4 26 -9 5 -5 33 -12 63 -15 30 -3 60 -11 67 -17 21 -18 192 -17 284 2 89
18 316 20 355 3 11 -4 29 -19 41 -33 12 -15 57 -62 100 -107 131 -135 297
-320 350 -389 16 -22 37 -47 47 -57 9 -10 17 -25 17 -33 0 -9 6 -18 14 -21 8
-3 21 -23 30 -45 9 -21 24 -47 35 -58 10 -10 22 -28 26 -40 3 -12 11 -21 16
-21 5 0 9 -4 9 -9 0 -6 11 -22 25 -37 14 -15 25 -32 25 -38 0 -6 12 -22 25
-35 14 -13 25 -29 25 -37 0 -8 3 -14 8 -14 4 0 30 -29 57 -65 27 -36 52 -65
57 -65 4 0 8 -5 8 -11 0 -12 1 -13 117 -138 100 -107 162 -171 167 -171 3 0
17 -12 33 -27 16 -16 51 -47 79 -69 27 -23 81 -68 119 -101 39 -33 86 -68 105
-78 19 -9 46 -27 60 -40 14 -12 40 -28 58 -36 17 -8 32 -17 32 -21 0 -5 5 -8
10 -8 6 0 23 -8 37 -18 15 -9 45 -21 67 -27 23 -5 41 -15 41 -22 0 -20 -97
-79 -170 -103 -38 -13 -79 -27 -90 -31 -25 -9 -153 -42 -180 -47 -64 -10 -268
-3 -317 12 -29 8 -66 17 -81 18 -26 3 -30 10 -63 107 -24 72 -31 108 -24 115
15 15 12 83 -5 116 -25 49 -73 78 -138 84 -55 4 -58 3 -82 -28 -19 -25 -25
-46 -27 -93 -2 -54 1 -65 27 -99 16 -21 30 -43 31 -49 2 -5 6 -25 9 -42 8 -34
-2 -42 -23 -21 -6 6 -22 13 -34 15 -30 5 -332 129 -383 158 -128 72 -241 138
-250 145 -5 4 -22 10 -36 13 -14 4 -39 19 -56 34 -17 16 -75 61 -129 101 -55
40 -131 103 -170 140 -68 65 -207 224 -253 289 -23 34 -98 113 -107 113 -6 0
-3 -4 36 -65 23 -37 29 -70 21 -132 -1 -14 -31 -18 -31 -5 0 11 -184 30 -188
20 -6 -13 -49 -9 -101 8 -32 10 -53 24 -65 45 -21 36 -35 38 -28 4 6 -33 -13
-32 -35 3 -10 15 -22 32 -28 39 -5 7 -16 19 -22 27 -7 8 -13 20 -13 26 0 5 -4
10 -10 10 -15 0 -12 -38 6 -66 9 -13 14 -27 11 -31 -4 -3 -2 -14 4 -24 7 -14
6 -19 -4 -19 -21 0 -34 20 -42 65 -4 22 -9 47 -12 55 -3 8 -7 22 -8 30 -6 43
-18 80 -24 75 -5 -2 -9 -29 -10 -60 -1 -48 8 -86 34 -147 9 -22 -13 -24 -60
-7 -44 16 -76 70 -82 140 -7 77 9 136 67 234 90 155 98 180 104 305 12 237 94
438 199 493 36 19 72 11 132 -30z m1357 -48 c15 -54 11 -285 -6 -348 -9 -32
-16 -60 -16 -62 0 -15 -29 11 -44 40 -11 19 -22 35 -26 35 -4 0 -42 45 -84
100 -43 55 -88 112 -102 127 -30 33 -27 45 17 60 19 7 77 28 129 47 52 19 101
34 109 33 8 -1 18 -15 23 -32z m-1292 -1171 c0 -11 -5 -14 -16 -10 -9 3 -18 6
-20 6 -3 0 -2 5 1 10 10 16 35 12 35 -6z m-56 -9 c6 -17 4 -18 -18 -9 -20 8
-21 24 -2 24 8 0 16 -7 20 -15z m1622 -481 c-4 -10 3 -18 24 -26 35 -12 37
-19 10 -36 -29 -18 -25 -30 12 -40 42 -11 47 -37 13 -64 -23 -18 -25 -22 -12
-35 11 -12 19 -13 33 -4 18 10 18 10 0 11 -15 0 -16 3 -6 15 11 13 15 12 31
-6 25 -28 24 -61 -1 -84 -24 -22 -26 -41 -4 -49 21 -8 40 4 23 15 -11 6 -11
11 -2 20 15 15 22 10 27 -17 3 -11 7 -26 11 -35 4 -11 -6 -25 -31 -44 -32 -24
-35 -25 -30 -7 5 16 1 22 -23 30 -21 7 -32 20 -37 39 -4 15 -17 49 -30 74 -13
26 -20 50 -17 53 4 4 -5 18 -20 32 -15 14 -27 36 -27 49 0 14 2 25 4 25 2 0
13 3 23 6 15 6 16 4 6 -7 -21 -22 -15 -34 7 -14 31 28 25 45 -14 45 -37 0 -48
14 -34 45 11 25 73 34 64 9z m39 6 c3 -5 -1 -10 -10 -10 -9 0 -13 5 -10 10 3
6 8 10 10 10 2 0 7 -4 10 -10z m65 -72 c9 -3 16 -20 17 -39 2 -34 2 -34 -14
-11 -8 12 -23 22 -33 22 -26 0 -32 12 -13 32 9 10 19 15 22 10 3 -5 13 -11 21
-14z m1296 -59 c-3 -17 -6 -37 -6 -44 0 -6 -11 -17 -25 -23 -28 -13 -33 -43
-10 -62 19 -16 19 -29 -2 -52 -22 -25 -31 -23 -26 7 4 19 0 25 -20 31 -40 9
-56 -1 -24 -17 l28 -13 -25 -13 c-31 -16 -35 -33 -6 -26 14 4 20 0 20 -10 0
-9 9 -19 21 -22 12 -4 18 -12 15 -21 -3 -8 0 -14 6 -14 6 0 3 -9 -7 -20 -24
-26 -35 -25 -32 2 2 19 -4 24 -33 28 -40 6 -40 5 -19 159 9 63 9 85 0 91 -19
11 12 31 66 40 86 14 86 14 79 -21z m-11 -98 c-3 -6 -11 -8 -17 -5 -6 4 -5 9
3 15 16 10 23 4 14 -10z m-1226 -269 c-34 -31 -33 -52 4 -52 17 0 19 2 8 9
-12 8 -12 12 -2 25 21 25 28 19 35 -26 8 -50 -11 -72 -53 -61 -35 8 -43 21
-37 66 3 26 0 40 -9 43 -14 6 -39 64 -31 72 3 2 11 0 18 -4 20 -13 58 -16 58
-5 0 5 -6 11 -12 14 -9 3 -7 9 7 20 19 15 20 13 33 -29 12 -43 12 -44 -19 -72z
m1111 70 c0 -4 -9 -13 -20 -19 -20 -13 -37 -2 -25 17 7 12 45 14 45 2z m5 -42
c-3 -5 7 -27 22 -47 24 -31 25 -36 8 -29 -11 5 -35 11 -54 15 -19 3 -33 9 -32
14 0 4 1 16 1 26 0 18 8 22 53 30 5 0 5 -3 2 -9z m40 -10 c3 -5 1 -10 -4 -10
-6 0 -11 5 -11 10 0 6 2 10 4 10 3 0 8 -4 11 -10z m-71 -85 c-25 -19 -34 -19
-34 0 0 10 10 15 27 15 26 0 26 -1 7 -15z m82 -67 c-6 -29 -17 -53 -23 -53 -6
0 -15 -3 -19 -7 -12 -13 -21 -9 -27 12 -3 11 -14 20 -24 20 -26 0 -42 18 -36
41 5 18 43 28 43 11 0 -7 57 -32 74 -32 14 0 -6 21 -28 30 -21 8 -21 8 4 18
46 19 49 16 36 -40z m-1106 12 c0 -5 -4 -10 -10 -10 -5 0 -10 5 -10 10 0 6 5
10 10 10 6 0 10 -4 10 -10z m6 -37 c-3 -3 -1 -16 4 -28 5 -13 6 -25 2 -27 -4
-2 -17 -16 -30 -32 -26 -33 -16 -56 24 -56 29 0 31 -21 4 -45 -16 -14 -20 -15
-20 -4 0 8 -15 19 -32 24 -26 8 -34 17 -39 43 -10 50 -1 72 30 72 l26 -1 -24
-19 c-13 -12 -18 -20 -10 -20 22 1 49 26 49 45 0 14 -7 16 -40 13 -33 -3 -40
0 -40 14 0 9 7 21 15 25 15 9 90 5 81 -4z m993 -22 c11 -7 9 -11 -9 -21 -25
-14 -33 -9 -24 14 7 18 13 19 33 7z m91 -43 c0 -7 -4 -19 -9 -27 -7 -11 -12
-11 -31 2 -21 14 -21 16 -3 26 25 14 43 14 43 -1z m-91 -22 c6 -7 25 -16 41
-20 41 -8 40 -40 0 -61 -17 -9 -30 -12 -29 -8 4 22 -4 31 -31 37 -23 4 -30 11
-30 29 0 38 26 50 49 23z m-979 -21 c0 -8 -7 -15 -15 -15 -16 0 -20 12 -8 23
11 12 23 8 23 -8z m945 -55 c3 -5 -1 -10 -9 -10 -9 0 -16 5 -16 10 0 6 4 10 9
10 6 0 13 -4 16 -10z m-1005 -34 c0 -2 -7 -9 -15 -16 -12 -10 -15 -10 -15 4 0
9 7 16 15 16 8 0 15 -2 15 -4z m1034 -11 c-4 -9 3 -19 20 -26 31 -14 34 -44 7
-59 -26 -14 -38 -13 -23 2 19 19 15 26 -24 38 -40 14 -58 5 -31 -15 16 -12 16
-13 -5 -18 -31 -8 -33 -3 -19 42 11 38 19 44 68 50 7 0 10 -5 7 -14z m66 1 c0
-8 -4 -17 -8 -20 -13 -8 -35 11 -28 23 10 16 36 14 36 -3z m-1022 -34 c4 -23
-12 -28 -37 -13 -12 8 -13 12 -1 26 17 20 34 14 38 -13z m-31 -32 c27 0 33 -4
33 -21 0 -20 -25 -48 -42 -49 -5 0 -8 9 -8 19 0 14 -8 21 -27 23 -21 2 -29 9
-31 27 -5 31 20 47 32 21 6 -14 19 -20 43 -20z m-47 -65 c0 -8 -4 -15 -9 -15
-13 0 -22 16 -14 24 11 11 23 6 23 -9z m92 -36 c4 -23 -1 -38 -18 -58 -16 -17
-26 -22 -31 -15 -5 6 -20 14 -34 17 -19 5 -26 13 -25 29 1 26 24 36 32 14 4
-9 17 -16 33 -16 25 1 25 1 7 15 -16 12 -17 17 -6 30 20 24 37 18 42 -16z
m940 -101 c-6 -6 -19 -8 -29 -4 -16 7 -16 9 7 26 22 17 25 17 28 3 2 -8 -1
-20 -6 -25z m-932 7 c0 -8 -9 -15 -20 -15 -22 0 -27 15 -7 23 21 9 27 7 27 -8z"/>
<path d="M3440 7179 c-25 -16 -52 -32 -60 -36 -35 -16 -214 -172 -207 -180 2
-2 23 16 47 39 65 61 198 158 255 184 28 13 41 23 30 23 -11 0 -40 -14 -65
-30z"/>
<path d="M3465 7110 c-13 -6 -15 -9 -5 -9 8 0 22 4 30 9 18 12 2 12 -25 0z"/>
<path d="M3400 7085 c-14 -8 -20 -14 -15 -14 6 0 21 6 35 14 14 8 21 14 15 14
-5 0 -21 -6 -35 -14z"/>
<path d="M3310 7039 c-17 -13 -18 -17 -5 -10 33 17 51 31 40 31 -5 0 -21 -10
-35 -21z"/>
<path d="M2348 6663 c-94 -76 -278 -276 -278 -303 0 -5 -4 -10 -10 -10 -5 0
-10 -6 -10 -14 0 -8 -4 -16 -8 -18 -5 -1 -28 -41 -50 -88 -42 -87 -127 -360
-114 -370 4 -3 7 -86 8 -185 0 -99 3 -201 7 -227 6 -34 4 -48 -4 -48 -8 0 -8
-4 -1 -13 6 -7 13 -31 16 -54 15 -129 209 -435 249 -394 9 10 6 18 -17 36 -18
15 -24 24 -15 27 9 3 7 10 -9 26 -11 11 -26 39 -33 61 -7 23 -16 41 -21 41 -5
0 -6 5 -3 10 3 6 1 10 -5 10 -13 0 -4 -41 19 -92 26 -53 0 -36 -37 25 -74 124
-101 224 -103 388 -1 63 -4 108 -6 102 -3 -7 -9 -13 -15 -13 -10 0 -6 270 5
310 2 8 7 38 12 65 4 28 16 68 26 89 11 22 19 46 19 53 0 7 5 13 10 13 6 0 8
10 5 23 -6 21 61 164 106 229 11 14 19 29 19 33 0 3 7 13 15 22 8 8 12 19 9
24 -3 6 53 69 125 140 72 71 129 129 127 129 -3 0 -19 -12 -38 -27z"/>
<path d="M4440 6642 c66 -45 153 -161 193 -258 29 -71 57 -164 57 -193 0 -12
4 -21 9 -21 22 0 -37 201 -86 289 -52 92 -154 202 -187 200 -6 0 0 -8 14 -17z"/>
<path d="M5080 6554 c0 -3 16 -28 35 -54 19 -26 32 -50 28 -54 -3 -3 -2 -6 3
-6 6 0 16 -16 24 -35 8 -19 17 -35 22 -35 4 0 7 -3 7 -7 -1 -5 0 -11 1 -15 1
-5 3 -11 4 -15 1 -5 12 -35 25 -68 31 -80 36 -283 8 -311 -4 -4 -7 -15 -7 -24
0 -10 -7 -23 -15 -30 -8 -7 -13 -16 -10 -20 3 -4 -2 -13 -11 -21 -8 -7 -20
-21 -26 -33 -9 -17 -7 -17 20 5 80 64 114 206 86 361 -16 85 -98 259 -152 321
-23 27 -42 45 -42 41z"/>
<path d="M2036 6443 c-20 -26 -40 -54 -46 -60 -6 -7 -7 -13 -3 -13 4 0 3 -4
-2 -8 -21 -14 -119 -223 -108 -230 7 -5 7 -21 -2 -54 -21 -85 -1 -51 28 45 28
94 58 160 108 233 16 23 25 44 22 48 -4 3 1 6 10 6 10 0 14 5 11 15 -4 10 0
15 12 16 12 0 14 3 6 6 -10 4 -10 8 -1 19 7 8 9 17 6 20 -3 3 -21 -16 -41 -43z"/>
<path d="M2413 6367 c-28 -34 -49 -64 -46 -67 2 -3 14 9 26 25 12 17 37 47 56
68 18 20 29 37 25 36 -5 0 -32 -28 -61 -62z"/>
<path d="M4852 6390 c0 -14 2 -19 5 -12 2 6 2 18 0 25 -3 6 -5 1 -5 -13z"/>
<path d="M4712 6375 c0 -16 2 -22 5 -12 2 9 2 23 0 30 -3 6 -5 -1 -5 -18z"/>
<path d="M4860 6307 c4 -41 5 -41 8 -8 2 18 0 37 -5 42 -5 5 -6 -11 -3 -34z"/>
<path d="M4722 6320 c0 -14 2 -19 5 -12 2 6 2 18 0 25 -3 6 -5 1 -5 -13z"/>
<path d="M2340 6269 c0 -5 5 -7 10 -4 6 3 10 8 10 11 0 2 -4 4 -10 4 -5 0 -10
-5 -10 -11z"/>
<path d="M4721 6244 c0 -11 3 -14 6 -6 3 7 2 16 -1 19 -3 4 -6 -2 -5 -13z"/>
<path d="M4861 6244 c0 -11 3 -14 6 -6 3 7 2 16 -1 19 -3 4 -6 -2 -5 -13z"/>
<path d="M2281 6161 c-43 -89 -73 -171 -62 -171 4 0 15 24 25 53 15 43 67 161
83 190 2 4 2 7 -2 7 -3 0 -23 -35 -44 -79z"/>
<path d="M4730 6210 c-3 -14 -6 -53 -9 -93 0 -10 -5 -15 -11 -12 -13 8 -13 3
0 -30 7 -17 7 -24 0 -20 -6 4 -9 -9 -9 -32 2 -73 -47 -297 -69 -312 -16 -11
-68 -111 -58 -111 3 0 14 16 26 35 27 44 46 46 22 3 -25 -46 -52 -119 -42
-113 29 18 108 248 135 393 10 55 27 270 22 288 -3 13 -5 14 -7 4z"/>
<path d="M4863 6155 c0 -22 2 -30 4 -17 2 12 2 30 0 40 -3 9 -5 -1 -4 -23z"/>
<path d="M4701 6144 c0 -11 3 -14 6 -6 3 7 2 16 -1 19 -3 4 -6 -2 -5 -13z"/>
<path d="M4853 6075 c0 -22 2 -30 4 -17 2 12 2 30 0 40 -3 9 -5 -1 -4 -23z"/>
<path d="M2830 6055 c-19 -19 -30 -35 -24 -34 9 0 70 69 62 69 -2 0 -19 -16
-38 -35z"/>
<path d="M4831 5964 c-8 -36 -11 -67 -8 -70 2 -3 10 25 17 61 7 36 10 68 8 70
-2 3 -10 -25 -17 -61z"/>
<path d="M1856 5995 c-9 -26 -7 -32 5 -12 6 10 9 21 6 23 -2 3 -7 -2 -11 -11z"/>
<path d="M2744 5952 c-68 -93 -135 -260 -149 -372 -7 -51 -8 -200 -2 -206 2
-3 7 45 11 104 7 123 34 237 77 330 16 35 29 65 29 68 0 8 53 88 74 112 11 12
15 22 10 22 -5 0 -28 -26 -50 -58z"/>
<path d="M4886 5914 c-25 -42 -46 -82 -46 -88 0 -11 55 75 85 135 29 56 6 29
-39 -47z"/>
<path d="M2206 5969 c-10 -31 -18 -76 -22 -119 -3 -25 -7 -51 -9 -58 -3 -7 -1
-11 4 -8 5 3 12 34 16 68 4 34 11 75 16 91 8 30 4 54 -5 26z"/>
<path d="M2795 5905 c-15 -30 -26 -57 -24 -59 2 -3 18 22 35 55 17 32 28 59
25 59 -4 0 -20 -25 -36 -55z"/>
<path d="M4805 5866 c-3 -9 -7 -23 -10 -31 -2 -8 -2 -15 1 -15 7 0 25 52 20
58 -3 3 -8 -3 -11 -12z"/>
<path d="M2881 5819 c-14 -40 -14 -109 0 -146 25 -67 95 -110 190 -116 35 -3
53 -3 39 0 -14 2 -32 7 -40 10 -8 4 -25 8 -38 9 -50 6 -106 48 -131 98 -22 45
-24 54 -14 110 12 70 10 81 -6 35z"/>
<path d="M2756 5819 c-19 -65 -26 -105 -31 -173 -4 -48 -3 -76 3 -72 5 3 12
45 15 93 3 48 11 103 18 121 6 18 9 36 5 39 -3 3 -7 0 -10 -8z"/>
<path d="M5075 5820 c-3 -5 -1 -10 4 -10 6 0 11 5 11 10 0 6 -2 10 -4 10 -3 0
-8 -4 -11 -10z"/>
<path d="M5194 5783 c-6 -21 -8 -24 -58 -118 -21 -38 -40 -78 -42 -89 -6 -30
-51 -90 -109 -146 -64 -60 -58 -67 8 -10 52 46 127 153 127 181 0 11 4 19 10
19 9 0 27 36 71 138 10 23 14 42 8 42 -5 0 -12 -8 -15 -17z"/>
<path d="M4784 5775 c-10 -8 -14 -15 -8 -15 6 0 17 7 24 15 16 19 9 19 -16 0z"/>
<path d="M5051 5753 c-43 -121 -159 -322 -214 -369 -18 -16 -40 -40 -49 -54
-26 -41 -61 -74 -105 -97 -53 -30 -64 -29 -98 7 -26 27 -27 32 -15 57 7 16 15
33 16 38 1 6 8 24 15 42 7 18 9 36 5 40 -5 4 -11 2 -13 -4 -3 -7 -11 -13 -18
-13 -8 0 -17 -10 -20 -22 -17 -59 -40 -98 -53 -93 -7 3 -20 5 -28 5 -11 0 -14
8 -10 33 l5 32 -19 -22 c-17 -21 -27 -23 -116 -23 l-98 0 36 36 c37 35 98 120
98 136 0 4 -5 8 -11 8 -5 0 -7 -4 -4 -10 3 -5 -1 -10 -9 -10 -8 0 -17 -9 -21
-19 -10 -32 -117 -133 -162 -153 -24 -10 -43 -23 -43 -28 0 -6 -7 -10 -16 -10
-9 0 -18 -9 -21 -20 -3 -11 -9 -17 -14 -14 -5 3 -9 0 -9 -5 0 -14 1 -14 42 3
26 11 52 13 104 7 48 -5 63 -10 49 -15 -11 -4 -29 -12 -40 -17 -11 -5 -51 -13
-90 -19 -64 -10 -97 -20 -65 -20 10 0 10 -3 0 -15 -10 -12 -16 -13 -27 -4 -7
7 -16 9 -19 6 -12 -12 -134 94 -134 115 0 5 -4 8 -10 8 -17 0 -11 -13 31 -69
41 -54 39 -57 -16 -35 -18 7 -18 6 -6 -9 17 -22 3 -22 -29 0 -35 23 -104 98
-108 116 -1 4 -6 15 -11 25 -9 16 -10 16 -17 -1 -3 -10 -4 -20 -1 -24 4 -3 0
-18 -9 -34 -8 -16 -15 -32 -17 -35 -5 -14 -77 -84 -87 -84 -5 0 -10 -4 -10
-10 0 -5 -5 -10 -10 -10 -6 0 -20 -8 -31 -19 -16 -15 -155 -64 -174 -62 -15 2
-4 18 26 34 84 47 179 152 209 233 l10 27 -25 -24 c-13 -13 -25 -28 -25 -34 0
-5 -16 -28 -35 -50 -19 -22 -35 -42 -35 -45 0 -10 -113 -58 -185 -78 -11 -3
10 22 46 56 49 45 76 81 103 135 20 40 36 79 36 85 0 28 -17 7 -54 -62 -21
-41 -65 -103 -97 -137 -33 -35 -59 -66 -59 -70 0 -4 -8 -9 -17 -13 -111 -38
-133 -43 -133 -27 0 5 12 12 28 15 35 8 102 71 135 127 43 74 67 189 65 313
-1 52 4 107 11 129 7 21 10 41 7 44 -3 4 -6 -1 -6 -10 0 -9 -11 -24 -24 -33
-20 -13 -23 -20 -16 -39 6 -15 5 -26 -3 -34 -9 -9 -8 -14 2 -21 12 -7 12 -11
2 -24 -10 -12 -10 -16 -1 -16 11 0 11 -11 -4 -130 -9 -70 -53 -171 -93 -215
-30 -32 -117 -75 -153 -75 -34 0 -70 -11 -70 -20 0 -4 19 -8 42 -8 22 -1 44
-6 49 -13 5 -8 8 -6 12 7 4 16 5 17 6 2 1 -15 16 -21 51 -20 65 2 180 37 218
65 27 21 9 -10 -26 -45 -38 -37 -68 -47 -153 -53 -24 -1 -60 -3 -79 -5 -33 -2
-33 -3 -10 -10 41 -13 153 -11 232 4 158 31 274 99 329 196 19 33 37 60 40 60
4 0 15 -12 24 -27 44 -70 115 -114 199 -124 81 -10 125 -1 138 27 6 12 20 24
32 27 47 12 92 25 110 33 14 5 17 4 12 -4 -4 -7 -27 -17 -52 -23 -56 -14 -59
-33 -3 -24 49 8 102 31 146 63 31 22 58 26 100 14 22 -7 22 -8 -13 -52 -19
-25 -51 -54 -70 -66 -19 -11 -31 -24 -27 -27 3 -4 -3 -7 -15 -7 -12 0 -22 -5
-22 -11 0 -18 58 -2 108 29 26 16 63 35 82 42 19 7 50 19 67 27 18 7 39 13 45
12 35 -4 54 3 63 24 6 13 19 22 32 22 13 0 42 20 67 43 24 23 49 42 54 42 6 0
12 6 15 13 2 6 8 8 13 4 5 -4 4 -11 -1 -15 -21 -15 -56 -91 -45 -97 6 -4 17
-2 24 5 11 8 15 8 18 -1 5 -15 42 5 75 41 12 14 30 33 39 42 9 9 13 21 10 26
-3 6 1 12 9 16 8 3 15 11 15 18 0 7 -29 -19 -65 -57 -36 -39 -65 -74 -65 -78
0 -5 -4 -5 -10 -2 -17 10 -11 30 25 91 23 38 32 61 25 68 -6 6 -17 3 -30 -9
-14 -13 -17 -21 -9 -26 6 -3 -1 -6 -15 -6 -14 0 -26 2 -26 4 0 3 22 30 49 60
76 85 221 368 208 406 -1 5 -9 -9 -16 -30z m-511 -573 c17 -10 16 -12 -27 -33
-36 -17 -44 -6 -16 25 18 21 22 21 43 8z m-575 -30 c3 -5 1 -10 -4 -10 -6 0
-11 5 -11 10 0 6 2 10 4 10 3 0 8 -4 11 -10z"/>
<path d="M2172 5740 c0 -14 2 -19 5 -12 2 6 2 18 0 25 -3 6 -5 1 -5 -13z"/>
<path d="M2975 5713 c4 -27 8 -52 8 -57 2 -10 50 -66 54 -62 1 1 -9 24 -22 51
-14 26 -25 63 -25 82 0 18 -5 33 -11 33 -8 0 -9 -15 -4 -47z"/>
<path d="M5252 5718 c-7 -7 -12 -16 -12 -21 0 -5 7 -1 16 8 9 9 14 18 12 20
-2 3 -10 -1 -16 -7z"/>
<path d="M2172 5680 c0 -14 2 -19 5 -12 2 6 2 18 0 25 -3 6 -5 1 -5 -13z"/>
<path d="M3091 5685 c-1 -33 36 -85 61 -85 24 0 20 7 -14 24 -13 6 -28 27 -35
46 -7 22 -12 28 -12 15z"/>
<path d="M5225 5667 c-6 -7 -20 -37 -32 -67 -12 -30 -24 -63 -28 -72 -4 -10
-3 -18 2 -18 9 0 30 42 67 133 15 37 11 48 -9 24z"/>
<path d="M3330 5655 c0 -16 16 -20 24 -6 3 5 -1 11 -9 15 -9 3 -15 0 -15 -9z"/>
<path d="M3468 5535 c-3 -14 -1 -25 3 -25 5 0 9 11 9 25 0 14 -2 25 -4 25 -2
0 -6 -11 -8 -25z"/>
<path d="M4005 5552 c-5 -4 -17 -19 -25 -33 -28 -48 -74 -101 -138 -155 -72
-62 -68 -74 5 -15 72 58 122 113 148 165 13 25 23 46 22 46 -1 0 -6 -4 -12 -8z"/>
<path d="M4551 5483 c-10 -26 -10 -27 4 -9 8 11 15 23 15 28 0 15 -7 8 -19
-19z"/>
<path d="M3611 5443 c-16 -32 -41 -75 -56 -97 -14 -21 -24 -40 -21 -43 7 -7
65 83 92 142 31 72 22 70 -15 -2z"/>
<path d="M3453 5450 c-6 -25 -10 -47 -8 -49 8 -7 26 52 23 73 -2 13 -7 4 -15
-24z"/>
<path d="M5170 5459 c0 -6 -7 -8 -16 -5 -8 3 -12 2 -9 -3 3 -5 1 -12 -5 -16
-6 -4 -8 -11 -5 -16 4 -5 2 -9 -4 -9 -6 0 -8 -6 -6 -12 3 -7 -4 -26 -16 -43
-16 -24 -19 -25 -14 -8 6 22 5 21 -23 -5 -65 -60 -115 -102 -122 -102 -4 0
-18 -10 -31 -21 l-24 -21 25 7 c30 9 100 63 100 76 0 6 5 7 10 4 8 -5 7 -11
-1 -21 -6 -8 -8 -14 -5 -14 4 0 2 -9 -5 -21 -19 -37 16 -9 51 40 64 88 92 143
78 152 -12 8 -4 13 14 10 4 0 12 8 18 19 7 14 7 20 0 20 -5 0 -10 -5 -10 -11z"/>
<path d="M2390 5259 c0 -5 5 -7 10 -4 6 3 10 8 10 11 0 2 -4 4 -10 4 -5 0 -10
-5 -10 -11z"/>
<path d="M1890 5033 c0 -18 13 -48 32 -74 52 -72 110 -106 192 -111 80 -5 78
6 -2 21 -66 12 -124 40 -150 71 -14 17 -56 92 -57 102 0 3 -3 10 -7 14 -5 4
-8 -6 -8 -23z"/>
<path d="M2170 4950 c0 -5 5 -10 11 -10 5 0 7 5 4 10 -3 6 -8 10 -11 10 -2 0
-4 -4 -4 -10z"/>
<path d="M4340 4943 c-76 -12 -162 -38 -216 -64 -67 -33 -114 -71 -96 -77 7
-2 10 -13 6 -28 -8 -33 10 -31 66 6 57 38 65 38 43 -2 -10 -18 -18 -37 -18
-43 0 -5 -3 -15 -7 -20 -10 -16 9 -101 29 -132 22 -35 38 -48 87 -74 105 -56
274 27 300 148 10 46 -11 110 -51 160 -20 24 -33 46 -30 49 12 12 191 -19 226
-39 20 -11 48 -27 63 -34 15 -8 35 -24 45 -37 28 -35 43 -40 43 -16 0 26 -78
101 -146 141 -92 52 -240 79 -344 62z m28 -174 c49 -17 58 -89 16 -138 -32
-39 -69 -40 -107 -6 -36 34 -37 91 -2 129 26 28 46 32 93 15z"/>
<path d="M2869 4853 c-16 -7 -30 -12 -32 -12 -3 0 -10 -2 -117 -35 -47 -15
-106 -40 -132 -56 -42 -27 -47 -33 -45 -64 3 -46 11 -52 31 -21 9 14 24 25 34
25 10 0 27 7 38 15 30 23 104 55 154 66 25 5 54 12 65 15 18 4 18 3 5 -8 -32
-26 -62 -109 -62 -173 -1 -50 3 -68 24 -99 85 -125 313 -95 379 51 31 68 11
152 -51 208 -11 10 -20 22 -20 27 0 9 49 0 66 -13 22 -18 94 -38 99 -28 4 5
11 6 17 3 6 -4 14 -1 18 7 18 28 -75 72 -210 99 -69 13 -222 9 -261 -7z m205
-182 c26 -24 38 -66 30 -99 -12 -46 -102 -52 -140 -10 -22 24 -26 97 -6 120
19 23 86 17 116 -11z"/>
<path d="M2160 4800 c0 -5 5 -10 10 -10 6 0 10 5 10 10 0 6 -4 10 -10 10 -5 0
-10 -4 -10 -10z"/>
<path d="M2171 4749 c-1 -14 2 -29 6 -32 3 -4 7 -24 8 -44 1 -21 7 -49 14 -63
20 -43 4 91 -17 140 l-11 25 0 -26z"/>
<path d="M3817 4703 c-13 -20 -6 -264 8 -308 7 -22 25 -80 40 -130 15 -49 40
-108 55 -131 15 -23 33 -64 41 -93 7 -28 16 -51 21 -51 19 0 5 53 -37 134 -25
49 -49 105 -55 125 -20 74 -50 268 -50 326 -1 78 -13 144 -23 128z"/>
<path d="M4710 4582 c-47 -23 -119 -53 -160 -66 -53 -17 -67 -24 -47 -25 57
-2 272 86 293 120 11 18 0 15 -86 -29z"/>
<path d="M3746 4488 c-4 -37 -5 -80 0 -95 8 -25 9 -24 12 20 2 26 2 68 0 95
-3 47 -3 47 -12 -20z"/>
<path d="M3704 4515 c-21 -60 -13 -187 11 -163 3 3 4 48 3 99 -3 81 -4 90 -14
64z"/>
<path d="M3783 4460 c0 -47 2 -66 4 -42 2 23 2 61 0 85 -2 23 -4 4 -4 -43z"/>
<path d="M2614 4491 c23 -25 153 -72 226 -80 68 -8 83 4 18 14 -57 8 -162 42
-209 66 -48 24 -57 24 -35 0z"/>
<path d="M2958 4393 c7 -3 16 -2 19 1 4 3 -2 6 -13 5 -11 0 -14 -3 -6 -6z"/>
<path d="M3812 4030 c-14 -23 -16 -40 -4 -40 8 0 32 43 32 55 0 12 -16 3 -28
-15z"/>
<path d="M4130 3575 c-77 -15 -188 -18 -248 -6 -35 7 -57 4 -115 -16 -98 -35
-216 -42 -303 -18 -74 20 -97 13 -38 -11 98 -41 296 -29 392 25 8 4 35 4 61
-1 113 -22 262 -10 328 26 34 19 18 19 -77 1z"/>
<path d="M2240 4060 c0 -5 9 -10 21 -10 11 0 17 5 14 10 -3 6 -13 10 -21 10
-8 0 -14 -4 -14 -10z"/>
<path d="M2393 3786 c0 -15 3 -29 8 -32 11 -7 11 27 0 45 -6 9 -8 5 -8 -13z"/>
<path d="M2320 3790 c0 -5 5 -10 10 -10 6 0 10 5 10 10 0 6 -4 10 -10 10 -5 0
-10 -4 -10 -10z"/>
<path d="M3200 1007 c0 -21 12 -28 27 -16 19 16 16 29 -7 29 -11 0 -20 -6 -20
-13z"/>
<path d="M3254 895 c-1 -14 2 -25 7 -25 11 0 30 36 22 44 -14 14 -28 5 -29
-19z"/>
<path d="M4500 1021 c0 -5 8 -12 17 -16 16 -6 15 -8 -7 -25 -32 -24 -19 -38
15 -16 27 18 32 35 13 54 -14 14 -38 16 -38 3z"/>
</g>
</svg>
